<svg width="287" height="277" viewBox="0 0 287 277" fill="none" xmlns="http://www.w3.org/2000/svg">
<path d="M-41.694 -176.112C-40.1844 -176.757 -38.6667 -177.386 -37.1411 -178H139.141C140.667 -177.386 142.184 -176.757 143.694 -176.112H-41.694Z" fill="#00D3C3"/>
<path d="M-77.1666 -157.232C-76.1832 -157.869 -75.1947 -158.498 -74.2013 -159.12H176.201C177.195 -158.498 178.183 -157.869 179.167 -157.232H-77.1666Z" fill="#00D3C3"/>
<path d="M-100.231 -140.241C-100.98 -139.616 -101.725 -138.987 -102.466 -138.353H204.466C203.725 -138.987 202.98 -139.616 202.231 -140.241H-100.231Z" fill="#00D3C3"/>
<path d="M-122.126 -119.473C-121.539 -120.106 -120.949 -120.735 -120.355 -121.361H222.355C222.949 -120.735 223.539 -120.106 224.126 -119.473H-122.126Z" fill="#00D3C3"/>
<path d="M-136.478 -102.481C-136.959 -101.854 -137.437 -101.225 -137.912 -100.593H0.950714C2.94292 -101.262 4.9529 -101.891 6.97977 -102.481H-136.478Z" fill="#00D3C3"/>
<path d="M95.0203 -102.481C97.0471 -101.891 99.0571 -101.262 101.049 -100.593H239.912C239.437 -101.225 238.959 -101.854 238.479 -102.481H95.0203Z" fill="#00D3C3"/>
<path d="M-34.3006 -83.6017H-149.56C-149.951 -82.9743 -150.339 -82.345 -150.725 -81.7137H-37.1508C-36.208 -82.353 -35.2579 -82.9824 -34.3006 -83.6017Z" fill="#00D3C3"/>
<path d="M139.151 -81.7137C138.208 -82.353 137.258 -82.9824 136.301 -83.6017H251.56C251.951 -82.9743 252.339 -82.345 252.725 -81.7137H139.151Z" fill="#00D3C3"/>
<path d="M-58.1042 -64.722H-160.156C-160.471 -64.0943 -160.783 -63.4649 -161.093 -62.834H-60.0308C-59.394 -63.4688 -58.7518 -64.0981 -58.1042 -64.722Z" fill="#00D3C3"/>
<path d="M162.031 -62.834C161.394 -63.4688 160.752 -64.0981 160.104 -64.722H262.156C262.471 -64.0943 262.783 -63.4649 263.093 -62.834H162.031Z" fill="#00D3C3"/>
<path d="M-74.8095 -45.8423H-168.617C-168.866 -45.2143 -169.112 -44.585 -169.356 -43.9544H-76.2069C-75.7457 -44.5873 -75.2799 -45.2166 -74.8095 -45.8423Z" fill="#00D3C3"/>
<path d="M178.207 -43.9544C177.746 -44.5873 177.28 -45.2166 176.809 -45.8423H270.617C270.866 -45.2143 271.112 -44.585 271.356 -43.9544H178.207Z" fill="#00D3C3"/>
<path d="M-86.9999 -26.9627H-175.179C-175.368 -26.3344 -175.554 -25.7051 -175.738 -25.0747H-88.0193C-87.6837 -25.7066 -87.3439 -26.3359 -86.9999 -26.9627Z" fill="#00D3C3"/>
<path d="M190.019 -25.0747C189.684 -25.7066 189.344 -26.3359 189 -26.9627H277.179C277.368 -26.3344 277.554 -25.7051 277.738 -25.0747H190.019Z" fill="#00D3C3"/>
<path d="M-95.7845 -8.08299H-180.004C-180.137 -7.45459 -180.267 -6.82526 -180.395 -6.19502H-96.5005C-96.2658 -6.82626 -96.0271 -7.4556 -95.7845 -8.08299Z" fill="#00D3C3"/>
<path d="M198.501 -6.19502C198.266 -6.82626 198.027 -7.4556 197.785 -8.08299H282.004C282.137 -7.45459 282.267 -6.82526 282.395 -6.19502H198.501Z" fill="#00D3C3"/>
<path d="M-101.741 10.7967H-183.202C-183.283 11.4252 -183.361 12.0546 -183.436 12.6846H-102.195C-102.047 12.0538 -101.896 11.4245 -101.741 10.7967Z" fill="#00D3C3"/>
<path d="M204.195 12.6846C204.047 12.0538 203.896 11.4245 203.741 10.7967H285.202C285.283 11.4252 285.361 12.0546 285.436 12.6846H204.195Z" fill="#00D3C3"/>
<path d="M-105.195 29.6763H-184.851C-184.881 30.305 -184.908 30.9343 -184.933 31.5643H-105.411C-105.343 30.9339 -105.271 30.3045 -105.195 29.6763Z" fill="#00D3C3"/>
<path d="M207.411 31.5643C207.343 30.9339 207.271 30.3045 207.195 29.6763H286.851C286.881 30.305 286.908 30.9343 286.933 31.5643H207.411Z" fill="#00D3C3"/>
<path d="M-106.333 48.556H-185C-184.98 49.186 -184.958 49.8153 -184.933 50.444H-106.324C-106.33 49.8677 -106.333 49.2906 -106.333 48.7128C-106.333 48.6605 -106.333 48.6083 -106.333 48.556Z" fill="#00D3C3"/>
<path d="M208.324 50.444C208.33 49.8677 208.333 49.2906 208.333 48.7128C208.333 48.6605 208.333 48.6083 208.333 48.556H287C286.994 48.748 286.988 48.9399 286.981 49.1317C286.966 49.5695 286.95 50.0069 286.933 50.444H208.324Z" fill="#00D3C3"/>
<path d="M-105.232 67.4357H-183.654C-183.584 68.0658 -183.511 68.6951 -183.436 69.3236H-104.997C-105.079 68.6955 -105.158 68.0662 -105.232 67.4357Z" fill="#00D3C3"/>
<path d="M206.997 69.3236C207.079 68.6955 207.158 68.0662 207.232 67.4357H285.654C285.584 68.0658 285.511 68.6951 285.436 69.3236H206.997Z" fill="#00D3C3"/>
<path d="M-101.818 86.3154H-180.771C-180.648 86.9456 -180.523 87.5749 -180.395 88.2033H-101.343C-101.505 87.5755 -101.663 86.9462 -101.818 86.3154Z" fill="#00D3C3"/>
<path d="M203.343 88.2033C203.505 87.5755 203.663 86.9462 203.818 86.3154H282.771C282.648 86.9456 282.523 87.5749 282.395 88.2033H203.343Z" fill="#00D3C3"/>
<path d="M-95.9053 105.195H-176.279C-176.101 105.825 -175.921 106.455 -175.738 107.083H-95.1659C-95.4163 106.456 -95.6628 105.826 -95.9053 105.195Z" fill="#00D3C3"/>
<path d="M197.166 107.083C197.416 106.456 197.663 105.826 197.905 105.195H278.279C278.101 105.825 277.921 106.455 277.738 107.083H197.166Z" fill="#00D3C3"/>
<path d="M-87.1715 124.075H-170.075C-169.838 124.705 -169.598 125.335 -169.356 125.963H-86.1241C-86.4774 125.336 -86.8266 124.707 -87.1715 124.075Z" fill="#00D3C3"/>
<path d="M188.124 125.963C188.477 125.336 188.827 124.707 189.172 124.075H272.075C271.838 124.705 271.598 125.335 271.356 125.963H188.124Z" fill="#00D3C3"/>
<path d="M-75.0446 142.954H-162.01C-161.707 143.585 -161.401 144.215 -161.093 144.842H-73.6104C-74.0931 144.217 -74.5712 143.587 -75.0446 142.954Z" fill="#00D3C3"/>
<path d="M175.61 144.842C176.093 144.217 176.571 143.587 177.045 142.954H264.01C263.707 143.585 263.401 144.215 263.093 144.842H175.61Z" fill="#00D3C3"/>
<path d="M-58.4288 161.834H-151.865C-151.487 162.465 -151.107 163.095 -150.725 163.722H-56.4461C-57.1124 163.098 -57.7733 162.469 -58.4288 161.834Z" fill="#00D3C3"/>
<path d="M158.446 163.722C159.112 163.098 159.773 162.469 160.429 161.834H253.865C253.488 162.465 253.107 163.095 252.725 163.722H158.446Z" fill="#00D3C3"/>
<path d="M-34.7834 180.714H-139.316C-138.851 181.345 -138.383 181.975 -137.912 182.602H-31.8162C-32.8127 181.983 -33.8018 181.354 -34.7834 180.714Z" fill="#00D3C3"/>
<path d="M133.816 182.602C134.813 181.983 135.802 181.354 136.783 180.714H241.316C240.851 181.345 240.383 181.975 239.912 182.602H133.816Z" fill="#00D3C3"/>
<path d="M5.91641 199.593H-123.86C-123.286 200.226 -122.708 200.855 -122.126 201.481H12.8069C10.4893 200.903 8.19205 200.273 5.91641 199.593Z" fill="#00D3C3"/>
<path d="M89.1931 201.481C91.5107 200.903 93.808 200.273 96.0836 199.593H225.86C225.286 200.226 224.708 200.855 224.126 201.481H89.1931Z" fill="#00D3C3"/>
<path d="M-102.466 220.361C-103.196 219.736 -103.923 219.107 -104.645 218.473H206.645C205.923 219.107 205.196 219.736 204.466 220.361H-102.466Z" fill="#00D3C3"/>
<path d="M-80.0378 237.353C-79.0856 237.989 -78.1285 238.618 -77.1666 239.241H179.167C180.129 238.618 181.086 237.989 182.038 237.353H-80.0378Z" fill="#00D3C3"/>
<path d="M-41.694 258.12C-43.1352 257.505 -44.5691 256.875 -45.9954 256.232H147.995C146.569 256.875 145.135 257.505 143.694 258.12H-41.694Z" fill="#00D3C3"/>
<path d="M51 277C61.1659 277 71.1817 276.358 81.0091 275.112H20.9909C30.8183 276.358 40.8341 277 51 277Z" fill="#00D3C3"/>
</svg>
