<svg width="289" height="150" viewBox="0 0 289 150" fill="none" xmlns="http://www.w3.org/2000/svg">
<path d="M1.19917 208.916C0.789704 207.956 0.38994 206.992 -4.10791e-06 206.022L-9.0055e-06 93.9781C0.389935 93.0084 0.789699 92.0438 1.19916 91.0843L1.19917 208.916Z" fill="#00D3C3"/>
<path d="M13.1909 231.462C12.7866 230.837 12.3869 230.209 11.9917 229.577L11.9917 70.4229C12.3869 69.7915 12.7866 69.1632 13.1909 68.5382L13.1909 231.462Z" fill="#00D3C3"/>
<path d="M25.1826 247.542C24.78 247.071 24.3802 246.597 23.9834 246.122L23.9834 53.8784C24.3802 53.4025 24.78 52.9291 25.1826 52.4583L25.1826 247.542Z" fill="#00D3C3"/>
<path d="M37.1743 260.038C36.7725 259.665 36.3728 259.289 35.9751 258.912L35.9751 41.0882C36.3728 40.7107 36.7725 40.3352 37.1743 39.962L37.1743 260.038Z" fill="#00D3C3"/>
<path d="M49.166 270.071C48.7647 269.77 48.365 269.466 47.9668 269.16L47.9668 30.8399C48.3649 30.5342 48.7647 30.2305 49.166 29.9287L49.166 270.071Z" fill="#00D3C3"/>
<path d="M61.1577 278.215C60.7567 277.97 60.357 277.723 59.9585 277.475L59.9585 22.5253C60.357 22.2768 60.7567 22.0301 61.1577 21.7852L61.1577 278.215Z" fill="#00D3C3"/>
<path d="M73.1494 284.805C72.7486 284.608 72.3489 284.409 71.9502 284.209L71.9502 15.7909C72.3489 15.5906 72.7486 15.3919 73.1494 15.195L73.1494 284.805Z" fill="#00D3C3"/>
<path d="M85.1411 290.056C84.7405 289.902 84.3408 289.745 83.9419 289.587L83.9419 10.4129C84.3408 10.2548 84.7405 10.0983 85.1411 9.94348L85.1411 290.056Z" fill="#00D3C3"/>
<path d="M97.1328 294.113C96.7324 293.996 96.3326 293.878 95.9336 293.758L95.9336 6.24194C96.3326 6.12201 96.7323 6.00369 97.1328 5.88699L97.1328 294.113Z" fill="#00D3C3"/>
<path d="M109.124 297.073C108.724 296.992 108.324 296.909 107.925 296.824L107.925 3.1755C108.324 3.09094 108.724 3.00802 109.124 2.92666L109.124 297.073Z" fill="#00D3C3"/>
<path d="M121.116 299.006C120.716 298.958 120.316 298.909 119.917 298.857L119.917 1.14251C120.316 1.09143 120.716 1.04196 121.116 0.994044L121.116 299.006Z" fill="#00D3C3"/>
<path d="M133.108 299.958C132.708 299.942 132.308 299.924 131.909 299.906L131.909 0.0944461C132.308 0.0755557 132.708 0.0582217 133.108 0.0424747L133.108 299.958Z" fill="#00D3C3"/>
<path d="M145.1 299.958C144.7 299.973 144.301 299.987 143.9 300L143.9 -6.29009e-06C144.301 0.0125669 144.7 0.0267576 145.1 0.0424741L145.1 299.958Z" fill="#00D3C3"/>
<path d="M157.091 299.006C156.692 299.054 156.292 299.1 155.892 299.145L155.892 0.85534C156.292 0.900018 156.692 0.946221 157.091 0.994042L157.091 299.006Z" fill="#00D3C3"/>
<path d="M169.083 297.073C168.684 297.154 168.284 297.234 167.884 297.312L167.884 2.68807C168.284 2.76598 168.684 2.84554 169.083 2.92666L169.083 297.073Z" fill="#00D3C3"/>
<path d="M181.075 294.113C180.676 294.229 180.276 294.344 179.876 294.457L179.876 5.54296C180.276 5.656 180.676 5.77068 181.075 5.88699L181.075 294.113Z" fill="#00D3C3"/>
<path d="M193.066 290.056C192.667 290.211 192.268 290.363 191.867 290.514L191.867 9.48598C192.268 9.63683 192.667 9.78933 193.066 9.94347L193.066 290.056Z" fill="#00D3C3"/>
<path d="M205.058 284.805C204.659 285.001 204.26 285.195 203.859 285.388L203.859 14.6124C204.26 14.8049 204.659 14.9991 205.058 15.195L205.058 284.805Z" fill="#00D3C3"/>
<path d="M217.05 278.215C216.651 278.458 216.252 278.7 215.851 278.939L215.851 21.0606C216.252 21.3003 216.651 21.5419 217.05 21.7852L217.05 278.215Z" fill="#00D3C3"/>
<path d="M229.041 270.071C228.643 270.371 228.244 270.668 227.842 270.964L227.842 29.0362C228.244 29.3317 228.643 29.6292 229.041 29.9287L229.041 270.071Z" fill="#00D3C3"/>
<path d="M241.033 260.038C240.635 260.407 240.236 260.775 239.834 261.14L239.834 38.86C240.236 39.2252 240.635 39.5925 241.033 39.962L241.033 260.038Z" fill="#00D3C3"/>
<path d="M253.025 247.542C252.628 248.006 252.228 248.468 251.826 248.927L251.826 51.0728C252.228 51.5322 252.628 51.994 253.025 52.4582L253.025 247.542Z" fill="#00D3C3"/>
<path d="M265.017 231.462C264.621 232.073 264.221 232.681 263.817 233.287L263.817 66.7132C264.221 67.3184 264.621 67.9268 265.017 68.5382L265.017 231.462Z" fill="#00D3C3"/>
<path d="M277.008 208.916C276.617 209.832 276.218 210.743 275.809 211.65L275.809 88.3504C276.218 89.2569 276.617 90.1683 277.008 91.0843L277.008 208.916Z" fill="#00D3C3"/>
<path d="M287.801 130.926C288.592 137.173 289 143.539 289 150C289 156.461 288.592 162.827 287.801 169.074L287.801 130.926Z" fill="#00D3C3"/>
</svg>
